<svg width="273" height="271" viewBox="0 0 273 271" fill="none" xmlns="http://www.w3.org/2000/svg">
<path fill-rule="evenodd" clip-rule="evenodd" d="M266.525 94.5587C267.445 97.4026 268.272 100.284 269.003 103.198L124.446 0.745291C127.443 0.492327 130.464 0.33691 133.505 0.281922L266.525 94.5587ZM112.287 2.32327C115.79 1.70761 119.334 1.22604 122.911 0.883483L269.365 104.681C270.184 108.113 270.869 111.589 271.416 115.104L112.287 2.32327ZM272.291 149.408C272.644 145.975 272.863 142.558 272.953 139.162L88.8069 8.65077C85.5621 9.84425 82.3714 11.1577 79.2411 12.5863L272.291 149.408ZM78.1937 13.0696C75.6877 14.239 73.2211 15.4824 70.7972 16.7975L271.012 158.697C271.379 156.576 271.697 154.435 271.965 152.275C272.037 151.699 272.105 151.123 272.169 150.547L78.1937 13.0696ZM172.911 5.24194C183.385 8.12444 193.302 12.188 202.528 17.2631L227.795 35.1705C235.789 42.3257 242.902 50.3844 248.985 59.1589L172.911 5.24194ZM101.292 4.72694C104.459 3.89642 107.666 3.17701 110.909 2.57267L271.622 116.476C272.087 119.684 272.437 122.922 272.668 126.187L101.292 4.72694ZM69.8217 17.3318C67.4815 18.6263 65.1818 19.9878 62.9256 21.4142L269.165 167.584C269.79 165.016 270.342 162.416 270.819 159.786L69.8217 17.3318ZM153.16 1.32502C158.961 2.04559 164.632 3.11664 170.154 4.51401L250.585 61.5181C253.795 66.3619 256.697 71.4128 259.266 76.6405L152.964 1.30093L153.16 1.32502ZM272.752 127.473C272.964 130.94 273.041 134.436 272.979 137.955L89.9508 8.23581C93.2599 7.05208 96.624 5.99271 100.037 5.0627L272.752 127.473ZM260.163 78.5021C262.378 83.1907 264.329 88.0165 265.996 92.9581L135.205 0.261667C140.388 0.231941 145.626 0.494256 150.899 1.06279L260.163 78.5021ZM19.0531 66.2353C17.7939 68.3342 16.5898 70.4719 15.443 72.6467L235.582 228.667C237.283 226.896 238.938 225.077 240.542 223.213L19.0531 66.2353ZM30.4916 50.022C32.2859 47.8399 34.1468 45.7166 36.0706 43.6546L256.632 199.975C255.278 202.454 253.849 204.883 252.348 207.26L30.4916 50.022ZM29.8578 50.7985L251.811 208.105C250.092 210.783 248.281 213.393 246.385 215.932L24.1266 58.4098C25.9495 55.8016 27.8615 53.2633 29.8578 50.7985ZM23.5568 59.2316L245.783 216.732C244.304 218.681 242.774 220.587 241.195 222.45L19.5721 65.3774C20.8463 63.2893 22.1752 61.2401 23.5568 59.2316ZM54.6393 27.0886C57.04 25.3117 59.5001 23.6127 62.0153 21.9947L268.907 168.627C268.176 171.527 267.353 174.386 266.441 177.201L54.6393 27.0886ZM53.7968 27.7172L266.114 178.195C265.499 180.045 264.844 181.877 264.152 183.687L49.1922 31.3374C50.7007 30.0981 52.236 28.8911 53.7968 27.7172ZM48.3946 31.9977L263.78 184.649C262.867 186.983 261.891 189.283 260.856 191.547L42.7561 36.9716C44.5896 35.262 46.4699 33.6034 48.3946 31.9977ZM42.0125 37.6702L260.429 192.47C259.382 194.713 258.275 196.92 257.112 199.089L36.7621 42.919C38.4648 41.1212 40.2157 39.371 42.0125 37.6702ZM10.8856 82.1896C10.1281 83.9526 9.40685 85.7365 8.72285 87.5403L223.534 239.785C225.03 238.563 226.499 237.31 227.941 236.025L10.8856 82.1896ZM222.728 240.439L8.35991 88.5087C7.47908 90.8872 6.66287 93.2999 5.9136 95.745L216.618 245.079C218.698 243.589 220.735 242.042 222.728 240.439ZM3.5992 104.3C4.19854 101.753 4.86914 99.2374 5.6086 96.7545L215.754 245.692C213.616 247.198 211.435 248.643 209.211 250.025L3.5992 104.3ZM11.2926 81.2523C12.4413 78.6346 13.6701 76.0633 14.9757 73.5412L234.878 229.394C232.883 231.441 230.823 233.424 228.704 235.34L11.2926 81.2523ZM208.286 250.596L3.35583 105.353C2.67778 108.343 2.09767 111.374 1.61935 114.444L200.184 255.175C202.939 253.739 205.642 252.211 208.286 250.596ZM1.03458 118.623C1.16228 117.595 1.30134 116.571 1.4516 115.551L199.183 255.691C196.199 257.215 193.155 258.631 190.055 259.937L0.357622 125.491C0.524138 123.209 0.749386 120.919 1.03458 118.623ZM180.678 263.486C183.479 262.542 186.243 261.509 188.965 260.39L0.277419 126.66C0.0885439 129.599 -0.00303585 132.524 7.6722e-05 135.433L180.678 263.486ZM0.00704593 136.664L179.5 263.877C176.545 264.844 173.548 265.712 170.514 266.479L0.423966 145.929C0.178981 142.863 0.0389429 139.773 0.00704593 136.664ZM4.12605 168.21C3.43931 165.515 2.83498 162.792 2.31558 160.043L156.416 269.26C153.642 269.657 150.844 269.97 148.026 270.197L4.12605 168.21ZM4.5187 169.714C5.5667 173.634 6.78959 177.492 8.17959 181.278L134.225 270.611C138.338 270.694 142.42 270.592 146.461 270.314L4.5187 169.714ZM8.80495 182.947C10.5161 187.423 12.4618 191.794 14.629 196.045L118.043 269.338C118.641 269.42 119.24 269.499 119.84 269.573C124.061 270.098 128.259 270.425 132.428 270.563L8.80495 182.947ZM157.846 269.048L2.05722 158.634C1.38917 154.878 0.879529 151.075 0.534613 147.233L169.232 266.796C165.489 267.703 161.691 268.456 157.846 269.048ZM27.7884 216.919C23.2275 210.958 19.1605 204.626 15.6387 197.986L115.868 269.022C108.317 267.865 100.998 266.11 93.9555 263.814L27.7884 216.919ZM29.9622 219.685C45.5115 238.957 66.3474 254.069 90.6286 262.682L29.9622 219.685Z" fill="url(#paint0_linear_18_111)" fill-opacity="0.4"/>
<defs>
<linearGradient id="paint0_linear_18_111" x1="221.602" y1="236.588" x2="51.168" y2="28.9274" gradientUnits="userSpaceOnUse">
<stop stop-color="#E87042"/>
<stop offset="0.484375" stop-color="#4488ED"/>
<stop offset="1" stop-color="#393939"/>
</linearGradient>
</defs>
</svg>
