<svg xmlns="http://www.w3.org/2000/svg" viewBox="0 0 133.23 74.37"><defs><style>.cls-1,.cls-4{font-size:20px;}.cls-1{font-family:JosefinSans-Bold, Josefin Sans;font-weight:700;letter-spacing:0.02em;}.cls-2{letter-spacing:-0.04em;}.cls-3{letter-spacing:0.02em;}.cls-4{font-family:JosefinSans-Light, Josefin Sans;font-weight:300;letter-spacing:0.01em;}</style></defs><g id="Слой_2" data-name="Слой 2"><g id="Слой_2-2" data-name="Слой 2"><text class="cls-1" transform="translate(29.9 51.21)">GUITAR<tspan class="cls-2" x="38.08" y="0"></tspan></text><text class="cls-4" transform="translate(44.9 69.71)">SCHOOL</text><path d="M28,52.32c0-.58-2.3-.43-4.58-2.44a10.07,10.07,0,0,1-3.22-8.21c.29-3.48,2.41-6.56,4.6-7.57a12.45,12.45,0,0,1,2.64-.81,13.44,13.44,0,0,1,2.5-.17c2.58,0,3.86,0,4.84-.43,2-.81,3.13-2.9,3.9-4.39,1-2,.82-2.91,2.08-4.18a4.61,4.61,0,0,1,2.87-1.58c1.1-.08,2,.41,3.88,1.32.82.41.81.49,1.27.7a7,7,0,0,0,4.33.33c18.68-5.3,37.64-9.68,56-15.89a11,11,0,0,1,1.11-.36c3.62-.82,6.94,1.77,8,2.65l4.8.38V8.74l-4.22-4.61V2.32l-10.33,3-2,.57c-.24.36-.55.69-.78,1a4.49,4.49,0,0,1-2.88,1.52c-1.9.44-21.21,5.77-47.86,13.08a3,3,0,0,1-.82.09,2.6,2.6,0,0,1-2.07-1,2.35,2.35,0,0,1,0-1.86c.12-.43,1.13-4,.5-6A5.74,5.74,0,0,0,47.9,9.14c-1.31-.16-2.27.23-4,.92a19.64,19.64,0,0,0-5.18,3.27c-2.16,1.77-2,2.13-3.24,3-.77.53-2.68,1.65-6.93,1.69-5.8.05-6.57-2-13.07-2.66C12.26,15,9.09,14.71,6,16.49A11.81,11.81,0,0,0,1.7,20.71c-5.11,8.56,2.81,21.25,4,23.11,2.11,3.27,4.31,7.23,9.08,8.8C22.22,55.07,27.89,53.32,28,52.32Z"/><circle cx="107.18" cy="3.98" r="1.32"/><circle cx="111.33" cy="2.64" r="1.32"/><circle cx="115.38" cy="1.32" r="1.32"/></g></g></svg>